# 3ds Max Wavefront OBJ Exporter v0.97b - (c)2007 guruware
# File Created: 08.03.2016 20:05:51

mtllib Lab Work Table.mtl

#
# object Lab_Work_Table
#

v  176.0000 67.9375 -0.0000
v  176.0000 67.9375 -96.0000
v  176.0000 72.0000 -96.0000
v  176.0000 72.0000 -0.0000
v  168.6250 0.0000 -83.8750
v  168.0000 0.0000 -82.3125
v  166.3750 0.0000 -81.6875
v  166.3750 0.0000 -86.0625
v  168.0000 0.0000 -85.4375
v  164.2500 0.0000 -83.8750
v  164.8750 0.0000 -82.3125
v  164.8750 0.0000 -85.4375
v  168.6250 0.0000 -12.3203
v  168.0000 0.0000 -10.7813
v  166.3750 0.0000 -10.1406
v  166.3750 0.0000 -14.4922
v  168.0000 0.0000 -13.8516
v  164.2500 0.0000 -12.3203
v  164.8750 0.0000 -10.7813
v  164.8750 0.0000 -13.8516
v  12.0156 0.0000 -83.8750
v  11.3828 0.0000 -82.3125
v  9.8438 0.0000 -81.6875
v  9.8438 0.0000 -86.0625
v  11.3828 0.0000 -85.4375
v  7.6719 0.0000 -83.8750
v  8.3047 0.0000 -82.3125
v  8.3047 0.0000 -85.4375
v  12.0156 0.0000 -12.3203
v  11.3828 0.0000 -10.7813
v  9.8438 0.0000 -10.1406
v  9.8438 0.0000 -14.4922
v  11.3828 0.0000 -13.8516
v  7.6719 0.0000 -12.3203
v  8.3047 0.0000 -10.7813
v  8.3047 0.0000 -13.8516
v  11.3672 13.3359 -13.8359
v  10.9219 12.2500 -14.0391
v  10.9219 12.2500 -82.1250
v  11.3672 13.3359 -82.3750
v  10.9219 14.4141 -14.0391
v  10.9219 14.4141 -82.1250
v  9.8438 14.8594 -14.5000
v  9.8438 14.8594 -81.6875
v  8.7656 14.4141 -14.0391
v  8.7656 14.4141 -82.1250
v  8.3203 13.3359 -13.8359
v  8.3203 13.3359 -82.3750
v  8.7656 12.2500 -14.0391
v  8.7656 12.2500 -82.1250
v  9.8438 11.8047 -14.5000
v  9.8438 11.8047 -81.6875
v  168.0000 68.0000 -85.4375
v  168.6250 68.0000 -83.8750
v  168.0000 68.0000 -82.3125
v  166.3750 68.0000 -81.6875
v  164.8750 68.0000 -82.3125
v  164.2500 68.0000 -83.8750
v  164.8750 68.0000 -85.4375
v  166.3750 68.0000 -86.0625
v  164.8750 13.3359 -82.3750
v  165.3750 12.2500 -82.1250
v  165.3750 12.2500 -14.0391
v  164.8750 13.3359 -13.8359
v  165.3750 14.4141 -82.1250
v  165.3750 14.4141 -14.0391
v  166.3750 14.8594 -81.6875
v  166.3750 14.8594 -14.5000
v  167.5000 14.4141 -82.1250
v  167.5000 14.4141 -14.0391
v  167.8750 13.3359 -82.3750
v  167.8750 13.3359 -13.8359
v  167.5000 12.2500 -82.1250
v  167.5000 12.2500 -14.0391
v  166.3750 11.8047 -81.6875
v  166.3750 11.8047 -14.5000
v  168.0000 68.0000 -13.8516
v  168.6250 68.0000 -12.3203
v  168.0000 68.0000 -10.7813
v  166.3750 68.0000 -10.1406
v  164.8750 68.0000 -10.7813
v  164.2500 68.0000 -12.3203
v  164.8750 68.0000 -13.8516
v  166.3750 68.0000 -14.4922
v  7.6719 68.0000 -83.8750
v  8.3047 68.0000 -85.4375
v  8.3047 68.0000 -82.3125
v  9.8438 68.0000 -81.6875
v  11.3828 68.0000 -82.3125
v  12.0156 68.0000 -83.8750
v  11.3828 68.0000 -85.4375
v  9.8438 68.0000 -86.0625
v  11.3828 68.0000 -13.8516
v  12.0156 68.0000 -12.3203
v  11.3828 68.0000 -10.7813
v  9.8438 68.0000 -10.1406
v  8.3047 68.0000 -10.7813
v  7.6719 68.0000 -12.3203
v  8.3047 68.0000 -13.8516
v  9.8438 68.0000 -14.4922
v  0.0000 72.0000 -0.0000
v  0.0000 67.9375 -0.0000
v  88.0000 67.9375 -0.0000
v  88.0000 72.0000 -0.0000
v  176.0000 57.0313 -10.2656
v  176.0000 57.0313 -6.6250
v  88.0000 57.0313 -6.6250
v  88.0000 57.0313 -10.2656
v  0.0000 57.0313 -6.6250
v  0.0000 57.0313 -10.2656
v  0.0000 67.9375 -96.0000
v  88.0000 67.9375 -96.0000
v  0.0000 72.0000 -96.0000
v  7.7656 57.0313 -86.0000
v  7.7656 57.0313 -10.2578
v  4.1250 57.0313 -10.2578
v  4.1250 57.0313 -86.0000
v  4.1250 67.9375 -10.2578
v  4.1250 67.9375 -86.0000
v  7.7656 67.9375 -86.0000
v  7.7656 67.9375 -10.2578
v  172.2500 57.0313 -86.0000
v  172.2500 57.0313 -10.2578
v  168.6250 57.0313 -10.2578
v  168.6250 57.0313 -86.0000
v  168.6250 67.9375 -10.2578
v  168.6250 67.9375 -86.0000
v  172.2500 67.9375 -86.0000
v  172.2500 67.9375 -10.2578
v  176.0000 67.9375 -6.6250
v  176.0000 67.9375 -10.2656
v  0.0000 67.9375 -6.6250
v  0.0000 67.9375 -10.2656
v  176.0000 67.9375 -86.0000
v  176.0000 57.0313 -86.0000
v  176.0000 57.0313 -89.6250
v  176.0000 67.9375 -89.6250
v  0.0000 57.0313 -86.0000
v  0.0000 67.9375 -86.0000
v  0.0000 67.9375 -89.6250
v  0.0000 57.0313 -89.6250
v  88.0000 67.9375 -10.2656
v  88.0000 67.9375 -6.6250
v  88.0000 72.0000 -96.0000
v  88.0000 57.0313 -86.0000
v  88.0000 67.9375 -86.0000
v  88.0000 57.0313 -89.6250
v  88.0000 67.9375 -89.6250
# 148 vertices

vn 1.0000 0.0000 -0.0000
vn 0.0000 -1.0000 -0.0000
vn 1.0000 0.0011 -0.0000
vn 0.7606 -0.6492 -0.0000
vn 0.7616 -0.6481 -0.0000
vn 0.7597 0.6503 -0.0000
vn 0.9216 0.3880 -0.0000
vn 0.1364 0.9907 -0.0000
vn 0.3818 0.9243 -0.0000
vn 0.0000 1.0000 -0.0000
vn -0.7597 0.6503 -0.0000
vn -0.7606 0.6492 -0.0000
vn -1.0000 0.0011 -0.0000
vn -0.7606 -0.6492 -0.0000
vn -0.7616 -0.6481 -0.0000
vn 0.7024 0.0000 -0.7118
vn 0.7024 0.0000 0.7118
vn -0.0138 0.0000 0.9999
vn -0.7121 0.0000 0.7020
vn -1.0000 0.0000 -0.0000
vn -0.7121 0.0000 -0.7020
vn -0.0138 0.0000 -0.9999
vn -1.0000 0.0012 -0.0000
vn -0.7535 -0.6574 -0.0000
vn -0.7528 -0.6582 -0.0000
vn -0.7525 0.6586 -0.0000
vn -0.9046 0.4262 -0.0000
vn -0.1595 0.9872 -0.0000
vn -0.4068 0.9135 -0.0000
vn -0.0210 0.9998 -0.0000
vn 0.7783 0.6279 -0.0000
vn 0.7771 0.6294 -0.0000
vn 1.0000 0.0009 -0.0000
vn 1.0000 0.0010 -0.0000
vn 0.7790 -0.6270 -0.0000
vn 0.7779 -0.6284 -0.0000
vn -0.0246 -0.9997 -0.0000
vn -0.0247 -0.9997 -0.0000
vn 1.0000 0.0000 -0.0009
vn 0.7029 0.0000 -0.7113
vn 0.7035 0.0000 0.7107
vn -0.0141 0.0000 0.9999
vn -0.7134 0.0000 0.7008
vn -1.0000 0.0000 -0.0009
vn -0.7128 0.0000 -0.7014
vn -0.0141 0.0000 -0.9999
vn -0.7074 0.0000 -0.7068
vn -0.7074 0.0000 0.7068
vn 0.0000 0.0000 1.0000
vn 0.7074 0.0000 0.7068
vn 0.7074 0.0000 -0.7068
vn 0.0000 0.0000 -1.0000
vn 0.7080 0.0000 -0.7062
vn 0.7086 0.0000 0.7056
vn -0.7086 0.0000 0.7056
vn -0.7080 0.0000 -0.7062
# 56 vertex normals

vt 0.1769 0.0977 0.0977
vt 0.5527 0.0977 0.0977
vt 0.5527 0.1133 0.1133
vt 0.1769 0.1133 0.1133
vt 0.7598 0.5874 0.5874
vt 0.7837 0.6445 0.6445
vt 0.8403 0.6680 0.6680
vt 0.8403 0.5068 0.5068
vt 0.7837 0.5303 0.5303
vt 0.9214 0.5874 0.5874
vt 0.8975 0.6445 0.6445
vt 0.8975 0.5303 0.5303
vt 0.8013 0.0093 0.0093
vt 0.8286 0.0093 0.0093
vt 0.8286 0.4414 0.4414
vt 0.8013 0.4414 0.4414
vt 0.7734 0.0093 0.0093
vt 0.7734 0.4414 0.4414
vt 0.7461 0.0093 0.0093
vt 0.7461 0.4414 0.4414
vt 0.9395 0.0093 0.0093
vt 0.9668 0.0093 0.0093
vt 0.9668 0.4414 0.4414
vt 0.9395 0.4414 0.4414
vt 0.9116 0.0093 0.0093
vt 0.9116 0.4414 0.4414
vt 0.8843 0.0093 0.0093
vt 0.8843 0.4414 0.4414
vt 0.8564 0.0093 0.0093
vt 0.8564 0.4414 0.4414
vt 0.7285 0.9808 0.9808
vt 0.7285 0.9993 0.9993
vt 0.3721 0.9993 0.9993
vt 0.3721 0.9808 0.9808
vt 0.0158 0.9993 0.9993
vt 0.0158 0.9808 0.9808
vt 0.6899 0.4844 0.4844
vt 0.6899 0.4980 0.4980
vt 0.3567 0.4980 0.4980
vt 0.3567 0.4844 0.4844
vt 0.0238 0.4980 0.4980
vt 0.0238 0.4844 0.4844
vt 0.7266 0.0088 0.0088
vt 0.7266 0.4785 0.4785
vt 0.3655 0.4790 0.4790
vt 0.3655 0.0093 0.0093
vt 0.0046 0.0093 0.0093
vt 0.0046 0.4790 0.4790
vt 0.5527 0.0845 0.0845
vt 0.1769 0.0845 0.0845
vt 0.1769 0.0688 0.0688
vt 0.5527 0.0688 0.0688
vt 0.2742 0.5342 0.5342
vt 0.2742 0.9554 0.9554
vt 0.2542 0.9554 0.9554
vt 0.2542 0.5342 0.5342
vt 0.1932 0.9554 0.9554
vt 0.1932 0.5342 0.5342
vt 0.3352 0.5342 0.5342
vt 0.3352 0.9554 0.9554
vt 0.5698 0.9549 0.9549
vt 0.5698 0.5347 0.5347
vt 0.5903 0.5347 0.5347
vt 0.5903 0.9549 0.9549
vt 0.6509 0.5347 0.5347
vt 0.6509 0.9549 0.9549
vt 0.5093 0.9549 0.9549
vt 0.5093 0.5347 0.5347
vt 0.6904 0.5396 0.5396
vt 0.7036 0.4980 0.4980
vt 0.7036 0.5396 0.5396
vt 0.0243 0.5396 0.5396
vt 0.0100 0.5396 0.5396
vt 0.0100 0.4980 0.4980
vt 0.6899 0.5400 0.5400
vt 0.6895 0.4985 0.4985
vt 0.7036 0.4985 0.4985
vt 0.7036 0.5398 0.5398
vt 0.0237 0.4985 0.4985
vt 0.0241 0.5400 0.5400
vt 0.0099 0.5398 0.5398
vt 0.0099 0.4985 0.4985
vt 0.0248 0.5811 0.5811
vt 0.3572 0.5396 0.5396
vt 0.3577 0.5811 0.5811
vt 0.6909 0.5811 0.5811
vt 0.0021 0.9804 0.9804
vt 0.0021 0.4800 0.4800
vt 0.3655 0.4800 0.4800
vt 0.3655 0.9804 0.9804
vt 0.7285 0.4800 0.4800
vt 0.7285 0.9804 0.9804
vt 0.7285 0.9801 0.9801
vt 0.7285 0.9986 0.9986
vt 0.3721 0.9986 0.9986
vt 0.3721 0.9801 0.9801
vt 0.0158 0.9986 0.9986
vt 0.0158 0.9801 0.9801
vt 0.3567 0.4985 0.4985
vt 0.3572 0.5400 0.5400
vt 0.0237 0.4849 0.4849
vt 0.3567 0.4849 0.4849
vt 0.6895 0.4849 0.4849
vt 0.0245 0.5815 0.5815
vt 0.3577 0.5815 0.5815
vt 0.6904 0.5815 0.5815
# 106 texture coords

g Lab_Work_Table
usemtl ABY_LabWorktable_Diffuse_shader
s 1
f 1/1/1 2/2/1 3/3/1 
s 2
f 3/3/1 4/4/1 1/1/1 
s 3
f 5/5/2 6/6/2 7/7/2 
s 4
f 8/8/2 9/9/2 5/5/2 
s 5
f 8/8/2 5/5/2 10/10/2 
s 6
f 5/5/2 7/7/2 10/10/2 
s 7
f 7/7/2 11/11/2 10/10/2 
s 8
f 12/12/2 8/8/2 10/10/2 
s 9
f 13/5/2 14/6/2 15/7/2 
s 10
f 16/8/2 17/9/2 13/5/2 
s 11
f 16/8/2 13/5/2 18/10/2 
s 12
f 13/5/2 15/7/2 18/10/2 
s 13
f 15/7/2 19/11/2 18/10/2 
s 14
f 20/12/2 16/8/2 18/10/2 
s 15
f 21/5/2 22/6/2 23/7/2 
s 16
f 24/8/2 25/9/2 21/5/2 
s 17
f 24/8/2 21/5/2 26/10/2 
s 18
f 21/5/2 23/7/2 26/10/2 
s 19
f 23/7/2 27/11/2 26/10/2 
s 20
f 28/12/2 24/8/2 26/10/2 
s 21
f 29/5/2 30/6/2 31/7/2 
s 22
f 32/8/2 33/9/2 29/5/2 
s 23
f 32/8/2 29/5/2 34/10/2 
s 24
f 29/5/2 31/7/2 34/10/2 
s 25
f 31/7/2 35/11/2 34/10/2 
s 26
f 36/12/2 32/8/2 34/10/2 
s 27
f 37/13/3 38/14/4 39/15/5 
s 28
f 39/15/5 40/16/3 37/13/3 
s 29
f 41/17/6 37/13/3 40/16/3 
s 30
f 40/16/3 42/18/7 41/17/6 
s 31
f 43/19/8 41/17/6 42/18/7 
s 32
f 42/18/9 44/20/10 43/19/8 
s 33
f 45/21/11 43/22/8 44/23/10 
s 34
f 44/23/10 46/24/12 45/21/11 
s 35
f 47/25/13 45/21/11 46/24/12 
s 36
f 46/24/12 48/26/13 47/25/13 
s 37
f 49/27/14 47/25/13 48/26/13 
s 38
f 48/26/13 50/28/15 49/27/14 
s 39
f 51/29/2 49/27/14 50/28/15 
s 40
f 50/28/15 52/30/2 51/29/2 
s 41
f 38/14/4 51/29/2 52/30/2 
s 42
f 52/30/2 39/15/5 38/14/4 
s 43
f 5/13/1 9/14/16 53/15/16 
s 44
f 53/15/16 54/16/1 5/13/1 
s 45
f 6/17/17 5/13/1 54/16/1 
s 46
f 54/16/1 55/18/17 6/17/17 
s 47
f 7/19/18 6/17/17 55/18/17 
s 48
f 55/18/17 56/20/18 7/19/18 
s 49
f 11/21/19 7/22/18 56/23/18 
s 50
f 56/23/18 57/24/19 11/21/19 
s 51
f 10/25/20 11/21/19 57/24/19 
s 52
f 57/24/19 58/26/20 10/25/20 
s 53
f 12/27/21 10/25/20 58/26/20 
s 54
f 58/26/20 59/28/21 12/27/21 
s 55
f 8/29/22 12/27/21 59/28/21 
s 56
f 59/28/21 60/30/22 8/29/22 
s 57
f 9/14/16 8/29/22 60/30/22 
s 58
f 60/30/22 53/15/16 9/14/16 
s 59
f 61/26/23 62/28/24 63/27/25 
s 60
f 63/27/25 64/25/23 61/26/23 
s 61
f 65/24/26 61/26/23 64/25/23 
s 62
f 64/25/23 66/21/27 65/24/26 
s 63
f 67/23/28 65/24/26 66/21/27 
s 64
f 66/21/29 68/22/30 67/23/28 
s 65
f 69/18/31 67/20/28 68/19/30 
s 66
f 68/19/30 70/17/32 69/18/31 
s 67
f 71/16/33 69/18/31 70/17/32 
s 68
f 70/17/32 72/13/34 71/16/33 
s 69
f 73/15/35 71/16/33 72/13/34 
s 70
f 72/13/34 74/14/36 73/15/35 
s 71
f 75/30/37 73/15/35 74/14/36 
s 72
f 74/14/36 76/29/38 75/30/37 
s 73
f 62/28/24 75/30/37 76/29/38 
s 74
f 76/29/38 63/27/25 62/28/24 
s 75
f 13/13/39 17/14/40 77/15/40 
s 76
f 77/15/40 78/16/39 13/13/39 
s 77
f 14/17/41 13/13/39 78/16/39 
s 78
f 78/16/39 79/18/41 14/17/41 
s 79
f 15/19/42 14/17/41 79/18/41 
s 80
f 79/18/41 80/20/42 15/19/42 
s 81
f 19/21/43 15/22/42 80/23/42 
s 82
f 80/23/42 81/24/43 19/21/43 
s 83
f 18/25/44 19/21/43 81/24/43 
s 84
f 81/24/43 82/26/44 18/25/44 
s 85
f 20/27/45 18/25/44 82/26/44 
s 86
f 82/26/44 83/28/45 20/27/45 
s 87
f 16/29/46 20/27/45 83/28/45 
s 88
f 83/28/45 84/30/46 16/29/46 
s 89
f 17/14/40 16/29/46 84/30/46 
s 90
f 84/30/46 77/15/40 17/14/40 
s 91
f 85/26/20 86/28/47 28/27/47 
s 92
f 28/27/47 26/25/20 85/26/20 
s 93
f 87/24/48 85/26/20 26/25/20 
s 94
f 26/25/20 27/21/48 87/24/48 
s 95
f 88/23/49 87/24/48 27/21/48 
s 96
f 27/21/48 23/22/49 88/23/49 
s 97
f 89/18/50 88/20/49 23/19/49 
s 98
f 23/19/49 22/17/50 89/18/50 
s 99
f 90/16/1 89/18/50 22/17/50 
s 100
f 22/17/50 21/13/1 90/16/1 
s 101
f 91/15/51 90/16/1 21/13/1 
s 102
f 21/13/1 25/14/51 91/15/51 
s 103
f 92/30/52 91/15/51 25/14/51 
s 104
f 25/14/51 24/29/52 92/30/52 
s 105
f 86/28/47 92/30/52 24/29/52 
s 106
f 24/29/52 28/27/47 86/28/47 
s 107
f 29/13/39 33/14/53 93/15/53 
s 108
f 93/15/53 94/16/39 29/13/39 
s 109
f 30/17/54 29/13/39 94/16/39 
s 110
f 94/16/39 95/18/54 30/17/54 
s 111
f 31/19/49 30/17/54 95/18/54 
s 112
f 95/18/54 96/20/49 31/19/49 
s 113
f 35/21/55 31/22/49 96/23/49 
s 114
f 96/23/49 97/24/55 35/21/55 
s 115
f 34/25/44 35/21/55 97/24/55 
s 116
f 97/24/55 98/26/44 34/25/44 
s 117
f 36/27/56 34/25/44 98/26/44 
s 118
f 98/26/44 99/28/56 36/27/56 
s 119
f 32/29/52 36/27/56 99/28/56 
s 120
f 99/28/56 100/30/52 32/29/52 
s 121
f 33/14/53 32/29/52 100/30/52 
s 122
f 100/30/52 93/15/53 33/14/53 
s 123
f 101/31/49 102/32/49 103/33/49 
s 124
f 103/33/49 104/34/49 101/31/49 
s 125
f 104/34/49 103/33/49 1/35/49 
s 126
f 1/35/49 4/36/49 104/34/49 
s 127
f 105/37/2 106/38/2 107/39/2 
s 128
f 107/39/2 108/40/2 105/37/2 
s 129
f 108/40/2 107/39/2 109/41/2 
s 130
f 109/41/2 110/42/2 108/40/2 
s 131
f 102/43/2 111/44/2 112/45/2 
s 132
f 112/45/2 103/46/2 102/43/2 
s 133
f 1/47/2 103/46/2 112/45/2 
s 134
f 112/45/2 2/48/2 1/47/2 
s 135
f 111/49/20 102/50/20 101/51/20 
s 136
f 101/51/20 113/52/20 111/49/20 
s 137
f 114/53/2 115/54/2 116/55/2 
s 138
f 116/55/2 117/56/2 114/53/2 
s 139
f 117/56/20 116/55/20 118/57/20 
s 140
f 118/57/20 119/58/20 117/56/20 
s 141
f 114/53/1 120/59/1 121/60/1 
s 142
f 121/60/1 115/54/1 114/53/1 
s 143
f 122/61/2 123/62/2 124/63/2 
s 144
f 124/63/2 125/64/2 122/61/2 
s 145
f 125/64/20 124/63/20 126/65/20 
s 146
f 126/65/20 127/66/20 125/64/20 
s 147
f 122/61/1 128/67/1 129/68/1 
s 148
f 129/68/1 123/62/1 122/61/1 
s 149
f 130/69/1 106/38/1 105/70/1 
s 150
f 105/70/1 131/71/1 130/69/1 
s 151
f 109/41/20 132/72/20 133/73/20 
s 152
f 133/73/20 110/74/20 109/41/20 
s 153
f 134/75/1 135/76/1 136/77/1 
s 154
f 136/77/1 137/78/1 134/75/1 
s 155
f 138/79/20 139/80/20 140/81/20 
s 156
f 140/81/20 141/82/20 138/79/20 
s 157
f 110/83/52 133/72/52 142/84/52 
s 158
f 142/84/52 108/85/52 110/83/52 
s 159
f 108/85/52 142/84/52 131/69/52 
s 160
f 131/69/52 105/86/52 108/85/52 
s 161
f 132/72/49 109/41/49 107/39/49 
s 162
f 107/39/49 143/84/49 132/72/49 
s 163
f 130/69/49 143/84/49 107/39/49 
s 164
f 107/39/49 106/38/49 130/69/49 
s 165
f 113/87/10 101/88/10 104/89/10 
s 166
f 104/89/10 144/90/10 113/87/10 
s 167
f 144/90/10 104/89/10 4/91/10 
s 168
f 4/91/10 3/92/10 144/90/10 
s 169
f 111/93/52 113/94/52 144/95/52 
s 170
f 144/95/52 112/96/52 111/93/52 
s 171
f 112/96/52 144/95/52 3/97/52 
s 172
f 3/97/52 2/98/52 112/96/52 
s 173
f 139/80/49 138/79/49 145/99/49 
s 174
f 145/99/49 146/100/49 139/80/49 
s 175
f 134/75/49 146/100/49 145/99/49 
s 176
f 145/99/49 135/76/49 134/75/49 
s 177
f 138/79/2 141/101/2 147/102/2 
s 178
f 147/102/2 145/99/2 138/79/2 
s 179
f 145/99/2 147/102/2 136/103/2 
s 180
f 136/103/2 135/76/2 145/99/2 
s 181
f 141/104/52 140/80/52 148/100/52 
s 182
f 148/100/52 147/105/52 141/104/52 
s 183
f 147/105/52 148/100/52 137/75/52 
s 184
f 137/75/52 136/106/52 147/105/52 
# 0 polygons - 184 triangles

